<svg id="Warstwa_1" data-name="Warstwa 1" xmlns="http://www.w3.org/2000/svg" viewBox="0 0 600 287"><defs><style>.cls-1,.cls-10{fill:none;}.cls-2{fill:#343434;}.cls-3{fill:#ffe2c0;}.cls-4{fill:#965900;}.cls-5{fill:#e4bd9b;}.cls-20,.cls-21,.cls-6,.cls-8,.cls-9{fill:#fff;}.cls-7{fill:#1f9cc0;}.cls-8{opacity:0.37;}.cls-9{opacity:0.5;}.cls-10{stroke:#c69c6d;stroke-miterlimit:10;stroke-width:1.5px;}.cls-11{fill:#585b5b;}.cls-12{fill:#d6d29c;}.cls-13{fill:#e51950;}.cls-14{fill:#c90202;}.cls-15{fill:#f7931e;}.cls-16{fill:#d6d261;opacity:0.31;}.cls-17{fill:#a1a5a4;}.cls-18{fill:#cacccc;}.cls-19{fill:#6b6b6b;}.cls-20{opacity:0.4;}.cls-21{opacity:0.25;}.cls-22{fill:#efebec;}</style></defs><polygon class="cls-1" points="536.02 0 0 0 0 287 600 287 600 45.14 600 0 536.02 0"/><rect class="cls-2" x="140.46" y="195.13" width="4" height="94.32" transform="translate(154.66 -121.51) rotate(32.94)"/><path class="cls-2" d="M166.11,164.14c-5.12,3.94-7.28,9.71-4.83,12.91l5.14,6.69L185,169.5l-5.14-6.69C177.38,159.62,171.24,160.21,166.11,164.14Z" transform="translate(0 -83)"/><path class="cls-3" d="M319.24,150.83c-13.1-6.55-30.28-4.48-41.58,3.65-19.63,14.13-13.42,40.73-12.12,46.29a51.19,51.19,0,0,0,14.83,25.42c4.83,4.46,11.79,10.88,21.63,10.81,10.33-.08,17.45-7.27,22.12-12,10.43-10.54,12.89-23.67,13.46-28.14S341.92,162.18,319.24,150.83Z" transform="translate(0 -83)"/><path class="cls-4" d="M307.91,178a23.4,23.4,0,0,1,14.83-3,21.29,21.29,0,0,1,6.36,2,8.49,8.49,0,0,0-4.24-5c-2.65-1.25-5.25-.57-7.41,0A19.46,19.46,0,0,0,307.91,178Z" transform="translate(0 -83)"/><path class="cls-4" d="M294.23,177.48a23.4,23.4,0,0,0-14.83-3,21.48,21.48,0,0,0-6.36,2,8.49,8.49,0,0,1,4.24-5c2.65-1.25,5.25-.56,7.41,0A19.46,19.46,0,0,1,294.23,177.48Z" transform="translate(0 -83)"/><path class="cls-5" d="M294.14,204c1.32,2.63,7,2.38,9.53,2,1.34-.2,3.71-.58,4.24-2a1.14,1.14,0,0,0,0-1c-.47-.72-2.06-.28-5.3,0-2.72.23-4.08.35-5.29,0-1.7-.49-2.65-1.38-3.18-1S293.79,203.3,294.14,204Z" transform="translate(0 -83)"/><path class="cls-4" d="M263.42,182c-.83-.17.75-5.94,0-14a35.76,35.76,0,0,0-1-5.67c-1.71-6.54-2.8-10.43-3.28-12.33-1-4-.39-10.33,7.42-20A27.32,27.32,0,0,0,274,140c3,2.5,6.76,4.6,7.42,4s-1.55-2.24-2.12-5c-.72-3.45,1.28-6.72,3.18-9a13.27,13.27,0,0,0,5.29,9c2.36,1.65,6.24,3.12,7.42,2s-.3-4.33-3.18-8a25.55,25.55,0,0,1,9.54,1c7.83,2.43,9.93,7.64,18,10a25.75,25.75,0,0,0,7.85,1,3.2,3.2,0,0,0,1.68,3,3.91,3.91,0,0,0,3.81,0,17.17,17.17,0,0,0-.63,6c.35,4.69,2.88,6.72,4.24,11,2.33,7.38,1.63,13.93,1.06,14s-.56-6.7-5.3-14.11c-2.17-3.4-4-6.32-7.42-7.89-7-3.27-12.13,3.19-24.36,4-13,.86-16.1-5.83-23.31-3C266,162.4,264.92,182.31,263.42,182Z" transform="translate(0 -83)"/><path class="cls-6" d="M328.57,183.55a12.89,12.89,0,0,1-9.64,5.15,13.67,13.67,0,0,1-10-3.24c-.4-4.6,4.11-8.54,9.49-8.74C323.32,176.53,327.82,179.45,328.57,183.55Z" transform="translate(0 -83)"/><path class="cls-7" d="M314,188.27a5.19,5.19,0,0,1-1.26-3.34,5.7,5.7,0,0,1,11.39,0,5.11,5.11,0,0,1-.7,2.53,13.45,13.45,0,0,1-4.83,1.24A14.13,14.13,0,0,1,314,188.27Z" transform="translate(0 -83)"/><ellipse cx="318.38" cy="102.24" rx="3.71" ry="3.5"/><ellipse class="cls-6" cx="316.31" cy="100.86" rx="0.93" ry="0.88"/><path class="cls-8" d="M330.72,184.6c-1,4.16-5.17,10.38-12.32,10.64s-11.82-5.63-13.16-9.71c-.43-1.31-1.58-4.81.71-7.78,4.34-5.64,18.65-6.16,23.44-.85C331.9,179.69,331,183.27,330.72,184.6Z" transform="translate(0 -83)"/><path class="cls-6" d="M273,183.43a12.89,12.89,0,0,0,9.64,5.15,13.76,13.76,0,0,0,10-3.24c.4-4.6-4.11-8.54-9.49-8.74C278.23,176.41,273.73,179.32,273,183.43Z" transform="translate(0 -83)"/><path class="cls-7" d="M287.6,188.15a5.14,5.14,0,0,0,1.26-3.34,5.7,5.7,0,0,0-11.39,0,5,5,0,0,0,.7,2.52,13.25,13.25,0,0,0,4.83,1.25A14.13,14.13,0,0,0,287.6,188.15Z" transform="translate(0 -83)"/><ellipse cx="283.17" cy="102.11" rx="3.71" ry="3.5"/><ellipse class="cls-6" cx="281.77" cy="100.73" rx="0.93" ry="0.88"/><ellipse class="cls-9" cx="309.49" cy="178.82" rx="2.53" ry="1.44" transform="translate(-1.61 271.82) rotate(-59.52)"/><path class="cls-8" d="M270.52,183c.64,4.23,4.26,10.74,11.36,11.55s12.26-4.7,13.95-8.66c.54-1.27,2-4.67,0-7.8-3.84-6-18.05-7.58-23.29-2.66C269.76,178,270.31,181.66,270.52,183Z" transform="translate(0 -83)"/><ellipse class="cls-9" cx="274.12" cy="178.57" rx="2.54" ry="1.43" transform="translate(-29.61 217.15) rotate(-54.9)"/><path class="cls-10" d="M294.33,183.74a1.86,1.86,0,0,1,.7-1.58c2.25-2,8.71-2.14,10.81-.12a2.29,2.29,0,0,1,.72,1.56" transform="translate(0 -83)"/><path class="cls-11" d="M175.44,173.12c-14,10.76-19.09,27.69-11.31,37.82l16.27,21.2,50.77-39L214.9,172C207.12,161.84,189.46,162.36,175.44,173.12Z" transform="translate(0 -83)"/><path class="cls-3" d="M263.68,200.57c2.92-.85,7.21-4,7.18-9.13s-4.35-8.24-7.28-9.06c-.55-.16-3.41-.77-5.5.75s-2,4-2.08,7.87c-.06,4.26-.1,7.27,2.17,8.87A7,7,0,0,0,263.68,200.57Z" transform="translate(0 -83)"/><ellipse class="cls-12" cx="205.21" cy="212" rx="32.17" ry="12.34" transform="translate(-86.49 84.66) rotate(-37.29)"/><path d="M288.75,215.88c1.13-1.74,4.08-.59,13.09-.88s11.87-1.63,13.1,0c1.69,2.23-1.25,7.84-5.61,10.59a14.54,14.54,0,0,1-15,0C290.41,223.14,287.27,218.16,288.75,215.88Z" transform="translate(0 -83)"/><path class="cls-6" d="M313.62,215.89a3.5,3.5,0,0,0,.18-1.64c-1.69-.38-4.95.47-11.95.69-6.68.22-10-.35-11.77,0a3.24,3.24,0,0,0,.16,2.14c.27.56,1.09,1.71,7.48,2.09a37.69,37.69,0,0,0,6.55,0C308.57,218.8,312.65,218.4,313.62,215.89Z" transform="translate(0 -83)"/><path class="cls-13" d="M293.46,225a8.84,8.84,0,0,1,6.54-.88,7.08,7.08,0,0,1,1.87.88,5.52,5.52,0,0,1,.94-.88,5.74,5.74,0,0,1,4.68-.88,5.46,5.46,0,0,1,2.8,1.76,14.69,14.69,0,0,1-16.83,0Z" transform="translate(0 -83)"/><ellipse cx="260.77" cy="113.5" rx="2.65" ry="2.5"/><path class="cls-3" d="M309,244.54V231H292v14c-8.79,4-15,13.7-15,25,0,14.91,10.75,27,24,27s24-12.09,24-27C325,258.24,318.32,248.25,309,244.54Z" transform="translate(0 -83)"/><path class="cls-14" d="M299.49,251a12.46,12.46,0,0,0,7.12-1,11.52,11.52,0,0,0,5.08-5L330,260.14a27.85,27.85,0,0,1-7.5,6.15c-.86.47-1.69.88-2.5,1.23q.63,20.89,1.25,41.79a54.66,54.66,0,0,1-42.5-1.23q2.5-20.28,5-40.56a25.91,25.91,0,0,1-3.75-1.23,26.57,26.57,0,0,1-10-7.38L289.32,246a18.27,18.27,0,0,0,4.07,3A15.87,15.87,0,0,0,299.49,251Z" transform="translate(0 -83)"/><path class="cls-15" d="M299,257h5c-.67,2-1.33,4-2,6h2l-5,9c.67-2.33,1.33-4.67,2-7h-4C297.67,262.33,298.33,259.67,299,257Z" transform="translate(0 -83)"/><path class="cls-16" d="M231,195l-51.48,35.27L269,364a142.09,142.09,0,0,0,33-12c35.56-18.13,54.56-46.92,63-62Z" transform="translate(0 -83)"/><rect class="cls-17" x="237" y="183" width="126.94" height="94" rx="9.7"/><circle class="cls-18" cx="300.47" cy="230.4" r="10.44"/><path class="cls-2" d="M114.12,280a5.63,5.63,0,1,0,5.63,5.62A5.62,5.62,0,0,0,114.12,280Zm0,9a3.41,3.41,0,1,1,3.41-3.41A3.4,3.4,0,0,1,114.12,289Z" transform="translate(0 -83)"/><rect class="cls-2" x="122.63" y="288.54" width="4" height="53.11" transform="translate(-91.25 -29.08) rotate(-18)"/><path class="cls-2" d="M141.77,337a23.62,23.62,0,0,0-23.16,23h46.87A23.63,23.63,0,0,0,141.77,337Z" transform="translate(0 -83)"/><path class="cls-3" d="M337.59,200.39c-2.93-.85-7.22-4-7.19-9s4.35-8.16,7.28-9c.58-.16,3.48-.79,5.5.74,1.73,1.31,1.78,3.52,1.81,7.88,0,4.76.06,7.26-1.9,8.69S338.17,200.56,337.59,200.39Z" transform="translate(0 -83)"/><ellipse cx="340.22" cy="113.5" rx="2.65" ry="2.5"/><rect class="cls-19" x="113" y="277" width="372" height="10"/><path class="cls-20" d="M428,313c-2.23,4.11-13.58,5.12-20-1-3.89-3.71-6.3-10.34-4-15,3-6,11.28-3.47,17-11,.39-.51,5.12-6.91,3-12-2.74-6.55-14-4-16-9-3.36-8.21,22.07-26.85,24-25,.81.78-3.35,4.42-2,8,1.68,4.48,9.54,2.36,14,7,5.06,5.26,3.76,17.12-1,25-6.64,11-17.92,10.79-19,19C423.13,305.63,430,309.28,428,313Z" transform="translate(0 -83)"/><path class="cls-21" d="M431,316c2.77,1.54,11.69-4.54,12-12,.2-4.86-3.26-10.2-6-10-2.38.17-3.83,4.5-5,8C431.67,303,428,314.31,431,316Z" transform="translate(0 -83)"/><path class="cls-22" d="M407,322v6.05a10.43,10.43,0,0,0,.09,20.85A12.54,12.54,0,0,0,419.55,360h7.9A12.55,12.55,0,0,0,440,347.45V322Zm-6,16.52a6.5,6.5,0,0,1,6-6.47V345A6.49,6.49,0,0,1,401,338.52Z" transform="translate(0 -83)"/></svg>