<svg xmlns="http://www.w3.org/2000/svg" viewBox="0 0 390 287"><defs><style>.cls-1,.cls-10{fill:none;}.cls-2{fill:#343434;}.cls-3{fill:#ffe2c0;}.cls-4{fill:#965900;}.cls-5{fill:#e4bd9b;}.cls-20,.cls-21,.cls-6,.cls-8,.cls-9{fill:#fff;}.cls-7{fill:#1f9cc0;}.cls-8{opacity:0.37;}.cls-9{opacity:0.5;}.cls-10{stroke:#c69c6d;stroke-miterlimit:10;stroke-width:1.5px;}.cls-11{fill:#585b5b;}.cls-12{fill:#d6d29c;}.cls-13{fill:#e51950;}.cls-14{fill:#c90202;}.cls-15{fill:#f7931e;}.cls-16{fill:#d6d261;opacity:0.31;}.cls-17{fill:#a1a5a4;}.cls-18{fill:#cacccc;}.cls-19{fill:#6b6b6b;}.cls-20{opacity:0.4;}.cls-21{opacity:0.25;}.cls-22{fill:#efebec;}</style></defs><g id="Warstwa_2" data-name="Warstwa 2"><g id="Warstwa_1-2" data-name="Warstwa 1"><polygon class="cls-1" points="348.41 0 0 0 0 287 390 287 390 45.14 390 0 348.41 0"/><rect class="cls-2" x="36.46" y="112.13" width="4" height="94.32" transform="translate(92.8 4.7) rotate(32.94)"/><path class="cls-2" d="M62.11,81.14c-5.12,3.94-7.28,9.71-4.83,12.91l5.14,6.69L81,86.5l-5.14-6.69C73.38,76.62,67.24,77.21,62.11,81.14Z"/><path class="cls-3" d="M215.24,67.83c-13.1-6.55-30.28-4.48-41.58,3.65-19.63,14.13-13.42,40.73-12.12,46.29a51.19,51.19,0,0,0,14.83,25.42c4.83,4.46,11.79,10.88,21.63,10.81,10.33-.08,17.45-7.27,22.12-12,10.43-10.54,12.89-23.67,13.46-28.14S237.92,79.18,215.24,67.83Z"/><path class="cls-4" d="M203.91,95a23.4,23.4,0,0,1,14.83-3,21.29,21.29,0,0,1,6.36,2,8.49,8.49,0,0,0-4.24-5c-2.65-1.25-5.25-.57-7.41,0A19.46,19.46,0,0,0,203.91,95Z"/><path class="cls-4" d="M190.23,94.48a23.4,23.4,0,0,0-14.83-3,21.48,21.48,0,0,0-6.36,2,8.49,8.49,0,0,1,4.24-5c2.65-1.25,5.25-.56,7.41,0A19.46,19.46,0,0,1,190.23,94.48Z"/><path class="cls-5" d="M190.14,121c1.32,2.63,7,2.38,9.53,2,1.34-.2,3.71-.58,4.24-2a1.14,1.14,0,0,0,0-1c-.47-.72-2.06-.28-5.3,0-2.72.23-4.08.35-5.29,0-1.7-.49-2.65-1.38-3.18-1S189.79,120.3,190.14,121Z"/><path class="cls-4" d="M159.42,99c-.83-.17.75-5.94,0-14a35.76,35.76,0,0,0-1-5.67c-1.71-6.54-2.8-10.43-3.28-12.33-1-4-.39-10.33,7.42-20A27.32,27.32,0,0,0,170,57c3,2.5,6.76,4.6,7.42,4s-1.55-2.24-2.12-5c-.72-3.45,1.28-6.72,3.18-9a13.27,13.27,0,0,0,5.29,9c2.36,1.65,6.24,3.12,7.42,2s-.3-4.33-3.18-8a25.55,25.55,0,0,1,9.54,1c7.83,2.43,9.93,7.64,18,10a25.75,25.75,0,0,0,7.85,1,3.2,3.2,0,0,0,1.68,3,3.91,3.91,0,0,0,3.81,0,17.17,17.17,0,0,0-.63,6c.35,4.69,2.88,6.72,4.24,11,2.33,7.38,1.63,13.93,1.06,14s-.56-6.7-5.3-14.11c-2.17-3.4-4-6.32-7.42-7.89-7-3.27-12.13,3.19-24.36,4-13,.86-16.1-5.83-23.31-3C162,79.4,160.92,99.31,159.42,99Z"/><path class="cls-6" d="M224.57,100.55a12.89,12.89,0,0,1-9.64,5.15,13.67,13.67,0,0,1-10-3.24c-.4-4.6,4.11-8.54,9.49-8.74C219.32,93.53,223.82,96.45,224.57,100.55Z"/><path class="cls-7" d="M210,105.27a5.19,5.19,0,0,1-1.26-3.34,5.7,5.7,0,0,1,11.39,0,5.11,5.11,0,0,1-.7,2.53,13.45,13.45,0,0,1-4.83,1.24A14.13,14.13,0,0,1,210,105.27Z"/><ellipse cx="214.38" cy="102.24" rx="3.71" ry="3.5"/><ellipse class="cls-6" cx="212.31" cy="100.86" rx="0.93" ry="0.88"/><path class="cls-8" d="M226.72,101.6c-1,4.16-5.17,10.38-12.32,10.64s-11.82-5.63-13.16-9.71c-.43-1.31-1.58-4.81.71-7.78,4.34-5.64,18.65-6.16,23.44-.85C227.9,96.69,227,100.27,226.72,101.6Z"/><path class="cls-6" d="M169,100.43a12.89,12.89,0,0,0,9.64,5.15,13.76,13.76,0,0,0,10-3.24c.4-4.6-4.11-8.54-9.49-8.74C174.23,93.41,169.73,96.32,169,100.43Z"/><path class="cls-7" d="M183.6,105.15a5.14,5.14,0,0,0,1.26-3.34,5.7,5.7,0,0,0-11.39,0,5,5,0,0,0,.7,2.52,13.25,13.25,0,0,0,4.83,1.25A14.13,14.13,0,0,0,183.6,105.15Z"/><ellipse cx="179.17" cy="102.11" rx="3.71" ry="3.5"/><ellipse class="cls-6" cx="177.77" cy="100.73" rx="0.93" ry="0.88"/><ellipse class="cls-9" cx="205.49" cy="95.82" rx="2.53" ry="1.44" transform="translate(18.67 224.3) rotate(-59.52)"/><path class="cls-8" d="M166.52,100c.64,4.23,4.26,10.74,11.36,11.55s12.26-4.7,14-8.66c.54-1.27,2-4.67,0-7.8-3.84-6-18.05-7.58-23.29-2.66C165.76,95,166.31,98.66,166.52,100Z"/><ellipse class="cls-9" cx="170.12" cy="95.57" rx="2.54" ry="1.43" transform="translate(-5.9 179.79) rotate(-54.9)"/><path class="cls-10" d="M190.33,100.74a1.86,1.86,0,0,1,.7-1.58c2.25-2,8.71-2.14,10.81-.12a2.29,2.29,0,0,1,.72,1.56"/><path class="cls-11" d="M71.44,90.12c-14,10.76-19.09,27.69-11.31,37.82l16.27,21.2,50.77-39L110.9,89C103.12,78.84,85.46,79.36,71.44,90.12Z"/><path class="cls-3" d="M159.68,117.57c2.92-.85,7.21-4,7.18-9.13s-4.35-8.24-7.28-9.06c-.55-.16-3.41-.77-5.5.75s-2,4-2.08,7.87c-.06,4.26-.1,7.27,2.17,8.87A7,7,0,0,0,159.68,117.57Z"/><ellipse class="cls-12" cx="101.21" cy="129" rx="32.17" ry="12.34" transform="translate(-57.47 87.69) rotate(-37.29)"/><path d="M184.75,132.88c1.13-1.74,4.08-.59,13.09-.88s11.87-1.63,13.1,0c1.69,2.23-1.25,7.84-5.61,10.59a14.54,14.54,0,0,1-15,0C186.41,140.14,183.27,135.16,184.75,132.88Z"/><path class="cls-6" d="M209.62,132.89a3.5,3.5,0,0,0,.18-1.64c-1.69-.38-5,.47-12,.69-6.68.22-10-.35-11.77,0a3.24,3.24,0,0,0,.16,2.14c.27.56,1.09,1.71,7.48,2.09a37.69,37.69,0,0,0,6.55,0C204.57,135.8,208.65,135.4,209.62,132.89Z"/><path class="cls-13" d="M189.46,142a8.84,8.84,0,0,1,6.54-.88,7.08,7.08,0,0,1,1.87.88,5.52,5.52,0,0,1,.94-.88,5.74,5.74,0,0,1,4.68-.88,5.46,5.46,0,0,1,2.8,1.76,14.69,14.69,0,0,1-16.83,0Z"/><ellipse cx="156.77" cy="113.5" rx="2.65" ry="2.5"/><path class="cls-3" d="M205,161.54V148H188v14c-8.79,4-15,13.7-15,25,0,14.91,10.75,27,24,27s24-12.09,24-27C221,175.24,214.32,165.25,205,161.54Z"/><path class="cls-14" d="M195.49,168a12.46,12.46,0,0,0,7.12-1,11.52,11.52,0,0,0,5.08-5L226,177.14a27.85,27.85,0,0,1-7.5,6.15c-.86.47-1.69.88-2.5,1.23q.63,20.89,1.25,41.79a54.66,54.66,0,0,1-42.5-1.23q2.5-20.28,5-40.56a25.91,25.91,0,0,1-3.75-1.23,26.57,26.57,0,0,1-10-7.38L185.32,163a18.27,18.27,0,0,0,4.07,3A15.87,15.87,0,0,0,195.49,168Z"/><path class="cls-15" d="M195,174h5l-2,6h2l-5,9c.67-2.33,1.33-4.67,2-7h-4Z"/><path class="cls-16" d="M127,112,75.52,147.27,165,281a142.09,142.09,0,0,0,33-12c35.56-18.13,54.56-46.92,63-62Z"/><rect class="cls-17" x="133" y="183" width="126.94" height="94" rx="9.7"/><circle class="cls-18" cx="196.47" cy="230.4" r="10.44"/><path class="cls-2" d="M10.12,197a5.63,5.63,0,1,0,5.63,5.62A5.62,5.62,0,0,0,10.12,197Zm0,9a3.41,3.41,0,1,1,3.41-3.41A3.4,3.4,0,0,1,10.12,206Z"/><rect class="cls-2" x="18.63" y="205.54" width="4" height="53.11" transform="translate(-70.7 17.73) rotate(-18)"/><path class="cls-2" d="M37.77,254a23.62,23.62,0,0,0-23.16,23H61.48A23.63,23.63,0,0,0,37.77,254Z"/><path class="cls-3" d="M233.59,117.39c-2.93-.85-7.22-4-7.19-9s4.35-8.16,7.28-9c.58-.16,3.48-.79,5.5.74,1.73,1.31,1.78,3.52,1.81,7.88,0,4.76.06,7.26-1.9,8.69S234.17,117.56,233.59,117.39Z"/><ellipse cx="236.22" cy="113.5" rx="2.65" ry="2.5"/><rect class="cls-19" x="9" y="277" width="372" height="10"/><path class="cls-20" d="M324,230c-2.23,4.11-13.58,5.12-20-1-3.89-3.71-6.3-10.34-4-15,3-6,11.28-3.47,17-11,.39-.51,5.12-6.91,3-12-2.74-6.55-14-4-16-9-3.36-8.21,22.07-26.85,24-25,.81.78-3.35,4.42-2,8,1.68,4.48,9.54,2.36,14,7,5.06,5.26,3.76,17.12-1,25-6.64,11-17.92,10.79-19,19C319.13,222.63,326,226.28,324,230Z"/><path class="cls-21" d="M327,233c2.77,1.54,11.69-4.54,12-12,.2-4.86-3.26-10.2-6-10-2.38.17-3.83,4.5-5,8C327.67,220,324,231.31,327,233Z"/><path class="cls-22" d="M303,239v6.05a10.43,10.43,0,0,0,.09,20.85A12.54,12.54,0,0,0,315.55,277h7.9A12.55,12.55,0,0,0,336,264.45V239Zm-6,16.52a6.5,6.5,0,0,1,6-6.47V262A6.49,6.49,0,0,1,297,255.52Z"/></g></g></svg>