<svg id="Warstwa_1" data-name="Warstwa 1" xmlns="http://www.w3.org/2000/svg" viewBox="0 0 165.37 153.65"><defs><style>.cls-1{fill:#004cc6;}.cls-2{fill:#0086ff;}</style></defs><path class="cls-1" d="M382.09,402.59v4.2c0,5.09-6.29,9.21-14,9.21h0c-7.75,0-14-4.12-14-9.21V324.21c0-5.09,6.29-9.21,14-9.21h0c7.76,0,14,4.12,14,9.21v4.2m0,0v74.18" transform="translate(-354 -269.91)"/><path class="cls-2" d="M422.45,418.88Q392.92,408.23,379.34,380q-13.86-28.87-3.32-58.67m0,0q10.5-29.89,39.46-43.79a74.42,74.42,0,0,1,32.09-7.58q15.94.16,35.25,8.45l-7.7,20.51q-26.76-13.9-50.22-2.64-21.06,10.11-28.35,31.47-7.41,21.12,2.9,42.6,10.64,22.17,33.42,28.89,21.27,6.18,38.62-2.15a44.39,44.39,0,0,0,21.77-22.72q6.94-15.7,1.59-30.37l-33.08,15.88-9-18.82,54.82-26.31,2.1,4.38a100.42,100.42,0,0,1,9.19,28.16,62.57,62.57,0,0,1-2,25.5q-8.51,29.67-37,43.36-27.84,13.36-57.34,2.78" transform="translate(-354 -269.91)"/><circle class="cls-1" cx="14.5" cy="21.59" r="13.5"/></svg>