<svg id="Warstwa_1" data-name="Warstwa 1" xmlns="http://www.w3.org/2000/svg" viewBox="0 0 172.52 160.04"><defs><style>.cls-1{fill:#004cc6;}.cls-2{fill:#0086ff;stroke:#0086ff;stroke-miterlimit:10;stroke-width:4px;}</style></defs><path class="cls-1" d="M326.09,361.59v4.2c0,5.09-6.29,9.21-14,9.21h0c-7.75,0-14-4.12-14-9.21V283.21c0-5.09,6.29-9.21,14-9.21h0c7.76,0,14,4.12,14,9.21v4.2m0,0v74.18" transform="translate(-298 -225.75)"/><circle class="cls-1" cx="14.5" cy="27.75" r="13.5"/><path class="cls-2" d="M399.9,299.62l53.88-30.28,2.42,4.31a102,102,0,0,1,11.15,28,63.12,63.12,0,0,1-.39,26q-6.66,30.64-34.7,46.4-27.37,15.38-58,6.58T328,343.92q-15.94-28.38-7.2-59.29t37.15-47A75.88,75.88,0,0,1,390,227.84q16.17-.87,36.3,6.27l-6.47,21.31q-28.06-12.36-51.11.6Q348,267.66,342,289.8q-6.14,21.9,5.72,43,12.25,21.79,35.8,27.11,22,4.89,39-4.7a45.06,45.06,0,0,0,20.59-24.47q6-16.38-.36-30.9l-32.52,18.27Z" transform="translate(-298 -225.75)"/></svg>