<svg id="Warstwa_1" data-name="Warstwa 1" xmlns="http://www.w3.org/2000/svg" xmlns:xlink="http://www.w3.org/1999/xlink" viewBox="0 0 175.52 160.04"><defs><style>.cls-1{fill:url(#Gradient_bez_nazwy_46);}.cls-2,.cls-3{fill:#0086ff;}.cls-3{stroke:#0086ff;stroke-miterlimit:10;stroke-width:4px;}</style><linearGradient id="Gradient_bez_nazwy_46" x1="14" y1="56.25" x2="14" y2="148.25" gradientUnits="userSpaceOnUse"><stop offset="0" stop-color="#0086ff"/><stop offset="0.17" stop-color="#0074e1"/><stop offset="0.4" stop-color="#0062c1"/><stop offset="0.62" stop-color="#0054aa"/><stop offset="0.82" stop-color="#004c9c"/><stop offset="1" stop-color="#004997"/></linearGradient></defs><rect class="cls-1" y="56.25" width="28" height="92" rx="14"/><circle class="cls-2" cx="14.5" cy="24.75" r="13.5"/><path class="cls-3" d="M399.9,299.62l53.88-30.28,2.42,4.31a102,102,0,0,1,11.15,28,63.12,63.12,0,0,1-.39,26q-6.66,30.64-34.7,46.4-27.37,15.38-58,6.58T328,343.92q-15.94-28.38-7.2-59.29t37.15-47A75.88,75.88,0,0,1,390,227.84q16.17-.87,36.3,6.27l-6.47,21.31q-28.06-12.36-51.11.6Q348,267.66,342,289.8q-6.14,21.9,5.72,43,12.25,21.79,35.8,27.11,22,4.89,39-4.7a45.06,45.06,0,0,0,20.59-24.47q6-16.38-.36-30.9l-32.52,18.27Z" transform="translate(-295 -225.75)"/></svg>