<svg id="Warstwa_1" data-name="Warstwa 1" xmlns="http://www.w3.org/2000/svg" viewBox="0 0 178.52 160.25"><defs><style>.cls-1{fill:#0051a0;stroke:#0051a0;}.cls-1,.cls-2{stroke-miterlimit:10;stroke-width:4px;}.cls-2{fill:#0086ff;stroke:#0086ff;}</style></defs><circle class="cls-1" cx="15.5" cy="15.75" r="13.5"/><rect class="cls-1" x="2" y="58.25" width="27" height="100"/><path class="cls-2" d="M399.9,299.62l53.88-30.28,2.42,4.31a102,102,0,0,1,11.15,28,63.12,63.12,0,0,1-.39,26q-6.66,30.64-34.7,46.4-27.37,15.38-58,6.58T328,343.92q-15.94-28.38-7.2-59.29t37.15-47A75.88,75.88,0,0,1,390,227.84q16.17-.87,36.3,6.27l-6.47,21.31q-28.06-12.36-51.11.6Q348,267.66,342,289.8q-6.14,21.9,5.72,43,12.25,21.79,35.8,27.11,22,4.89,39-4.7a45.06,45.06,0,0,0,20.59-24.47q6-16.38-.36-30.9l-32.52,18.27Z" transform="translate(-292 -225.75)"/></svg>