<svg xmlns="http://www.w3.org/2000/svg" viewBox="0 0 442 272"><defs><style>.cls-1{fill:#67aaa9;stroke:#009498;stroke-miterlimit:10;stroke-width:0.25px;}.cls-2{fill:none;}.cls-14,.cls-3{fill:#9ac2f1;}.cls-12,.cls-4{fill:#464c60;}.cls-5,.cls-9{fill:#20193f;}.cls-6{fill:#ffdc00;}.cls-17,.cls-7{fill:#51a170;}.cls-20,.cls-8{fill:#2e6237;}.cls-12,.cls-14,.cls-17,.cls-20,.cls-9{font-size:10.38px;font-family:Futura-Medium, Futura;font-weight:500;}.cls-10{letter-spacing:-0.08em;}.cls-11{letter-spacing:-0.08em;}.cls-13{letter-spacing:-0.01em;}.cls-15{letter-spacing:-0.04em;}.cls-16{letter-spacing:0em;}.cls-18{letter-spacing:-0.08em;}.cls-19{letter-spacing:-0.09em;}.cls-21{letter-spacing:-0.04em;}</style></defs><g id="Warstwa_2" data-name="Warstwa 2"><g id="Warstwa_1-2" data-name="Warstwa 1"><rect class="cls-1" x="101.5" y="24.5" width="305" height="179"/><rect class="cls-2" width="442" height="272"/><rect class="cls-3" x="185.5" y="43.5" width="67.4" height="189"/><rect class="cls-4" x="253.06" y="43.5" width="67.4" height="189"/><rect class="cls-5" x="320.35" y="43.5" width="67.4" height="189"/><circle class="cls-6" cx="30.87" cy="92.87" r="3.37"/><circle class="cls-6" cx="46.26" cy="92.87" r="3.37"/><circle class="cls-6" cx="30.87" cy="106.33" r="3.37"/><circle class="cls-6" cx="46.26" cy="106.33" r="3.37"/><circle class="cls-6" cx="61.65" cy="92.87" r="3.37"/><circle class="cls-6" cx="77.04" cy="92.87" r="3.37"/><circle class="cls-6" cx="61.65" cy="106.33" r="3.37"/><circle class="cls-6" cx="77.04" cy="106.33" r="3.37"/><circle class="cls-6" cx="30.87" cy="121.72" r="3.37"/><circle class="cls-6" cx="46.26" cy="121.72" r="3.37"/><circle class="cls-6" cx="30.87" cy="135.19" r="3.37"/><circle class="cls-6" cx="46.26" cy="135.19" r="3.37"/><circle class="cls-6" cx="61.65" cy="121.72" r="3.37"/><circle class="cls-6" cx="77.04" cy="121.72" r="3.37"/><circle class="cls-6" cx="61.65" cy="135.19" r="3.37"/><circle class="cls-6" cx="77.04" cy="135.19" r="3.37"/><circle class="cls-6" cx="91.71" cy="93" r="3.37"/><circle class="cls-6" cx="107.1" cy="93" r="3.37"/><circle class="cls-6" cx="91.71" cy="106.46" r="3.37"/><circle class="cls-6" cx="107.1" cy="106.46" r="3.37"/><circle class="cls-6" cx="122.49" cy="93" r="3.37"/><circle class="cls-6" cx="137.88" cy="93" r="3.37"/><circle class="cls-6" cx="122.49" cy="106.46" r="3.37"/><circle class="cls-6" cx="137.88" cy="106.46" r="3.37"/><circle class="cls-6" cx="91.71" cy="121.85" r="3.37"/><circle class="cls-6" cx="107.1" cy="121.85" r="3.37"/><circle class="cls-6" cx="91.71" cy="135.32" r="3.37"/><circle class="cls-6" cx="107.1" cy="135.32" r="3.37"/><circle class="cls-6" cx="122.49" cy="121.85" r="3.37"/><circle class="cls-6" cx="137.88" cy="121.85" r="3.37"/><circle class="cls-6" cx="122.49" cy="135.32" r="3.37"/><circle class="cls-6" cx="137.88" cy="135.32" r="3.37"/><circle class="cls-6" cx="31.53" cy="150.8" r="3.37"/><circle class="cls-6" cx="46.92" cy="150.8" r="3.37"/><circle class="cls-6" cx="31.53" cy="164.26" r="3.37"/><circle class="cls-6" cx="46.92" cy="164.26" r="3.37"/><circle class="cls-6" cx="62.31" cy="150.8" r="3.37"/><circle class="cls-6" cx="77.7" cy="150.8" r="3.37"/><circle class="cls-6" cx="62.31" cy="164.26" r="3.37"/><circle class="cls-6" cx="77.7" cy="164.26" r="3.37"/><circle class="cls-6" cx="31.53" cy="179.65" r="3.37"/><circle class="cls-6" cx="46.92" cy="179.65" r="3.37"/><circle class="cls-6" cx="31.53" cy="193.12" r="3.37"/><circle class="cls-6" cx="46.92" cy="193.12" r="3.37"/><circle class="cls-6" cx="62.31" cy="179.65" r="3.37"/><circle class="cls-6" cx="77.7" cy="179.65" r="3.37"/><circle class="cls-6" cx="62.31" cy="193.12" r="3.37"/><circle class="cls-6" cx="77.7" cy="193.12" r="3.37"/><circle class="cls-6" cx="92.37" cy="150.93" r="3.37"/><circle class="cls-6" cx="107.77" cy="150.93" r="3.37"/><circle class="cls-6" cx="92.37" cy="164.39" r="3.37"/><circle class="cls-6" cx="107.77" cy="164.39" r="3.37"/><circle class="cls-6" cx="123.16" cy="150.93" r="3.37"/><circle class="cls-6" cx="138.55" cy="150.93" r="3.37"/><circle class="cls-6" cx="123.16" cy="164.39" r="3.37"/><circle class="cls-6" cx="138.55" cy="164.39" r="3.37"/><circle class="cls-6" cx="92.37" cy="179.78" r="3.37"/><circle class="cls-6" cx="107.77" cy="179.78" r="3.37"/><circle class="cls-6" cx="92.37" cy="193.25" r="3.37"/><circle class="cls-6" cx="107.77" cy="193.25" r="3.37"/><circle class="cls-6" cx="123.16" cy="179.78" r="3.37"/><circle class="cls-6" cx="138.55" cy="179.78" r="3.37"/><circle class="cls-6" cx="123.16" cy="193.25" r="3.37"/><circle class="cls-6" cx="138.55" cy="193.25" r="3.37"/><rect class="cls-7" x="118.37" y="43.5" width="67.4" height="189"/><rect class="cls-8" x="50.99" y="43.5" width="67.4" height="189"/><text class="cls-9" transform="translate(332.89 247.2) scale(1.05 1)">#2<tspan class="cls-10" x="12.82" y="0">0</tspan><tspan class="cls-11" x="18.43" y="0">1</tspan><tspan x="23.99" y="0">93F</tspan></text><text class="cls-12" transform="translate(263.42 247.53) scale(1.05 1)">#4<tspan class="cls-13" x="12.82" y="0">6</tspan><tspan x="19.14" y="0">4C60</tspan></text><text class="cls-14" transform="translate(194.83 247.45) scale(1.05 1)">#9<tspan class="cls-15" x="12.82" y="0">A</tspan><tspan class="cls-16" x="20.15" y="0">C2F1</tspan></text><text class="cls-17" transform="translate(128.83 247.45) scale(1.05 1)">#<tspan class="cls-18" x="6.41" y="0">5</tspan><tspan x="12.03" y="0">1A</tspan><tspan class="cls-19" x="26.13" y="0">1</tspan><tspan x="31.58" y="0">70</tspan></text><text class="cls-20" transform="translate(58.83 247.45) scale(1.05 1)">#2E62<tspan class="cls-21" x="31.51" y="0">3</tspan><tspan x="37.46" y="0">7</tspan></text></g></g></svg>