<svg xmlns="http://www.w3.org/2000/svg" viewBox="0 0 827.83 280"><defs><style>.cls-1,.cls-10,.cls-11,.cls-12,.cls-13,.cls-14,.cls-15,.cls-16,.cls-17,.cls-18,.cls-19,.cls-3,.cls-4,.cls-5,.cls-9{fill:none;}.cls-1{stroke:#de1f28;stroke-width:14px;}.cls-1,.cls-10,.cls-11,.cls-12,.cls-13,.cls-14,.cls-15,.cls-16,.cls-17,.cls-18,.cls-2,.cls-3,.cls-4,.cls-5,.cls-6,.cls-8,.cls-9{stroke-miterlimit:10;}.cls-2,.cls-7{fill:#5bba47;}.cls-2{stroke:#0db14c;stroke-width:3px;}.cls-3{stroke:#00ac4d;}.cls-10,.cls-11,.cls-12,.cls-13,.cls-14,.cls-15,.cls-16,.cls-17,.cls-18,.cls-3,.cls-4,.cls-5{stroke-width:2px;}.cls-4{stroke:#78c044;}.cls-5{stroke:#5fbb47;}.cls-6,.cls-8,.cls-9{stroke:#000;}.cls-8{fill:#fff;}.cls-10{stroke:#10b14c;}.cls-11{stroke:#56b648;}.cls-12{stroke:#83c341;}.cls-13{stroke:#82c344;}.cls-14{stroke:#48b74a;}.cls-15{stroke:#00ae4e;}.cls-16{stroke:#68bd48;}.cls-17{stroke:#6fbe45;}.cls-18{stroke:#7ac143;}</style></defs><g id="Warstwa_2" data-name="Warstwa 2"><g id="Warstwa_1-2" data-name="Warstwa 1"><path class="cls-1" d="M160,234a205,205,0,0,0-24.5-22.5c-8.78-6.82-18.29-12.9-21.32-15-13.86-9.53-19.85-13.18-25.89-18-.53-.43-3.5-2.94-5.79-5-13.55-12.12-49.19-44-46-81,2-23,19.72-52.88,50.38-58.57C120.77,27.65,145.72,55.52,147,57"/><path class="cls-2" d="M40,181c7.16-2.54,18-6.3,31.42-10.57,11.23-3.57,18.94-5.7,21.5-6.58,42.05-14.57,70.3-34.49,78.36-40.36,14.54-10.59,31.57-22.69,48.67-44a203,203,0,0,0,16.55-24l9,16q2.5,9.5,5,19a33.05,33.05,0,0,1,1,15,34.72,34.72,0,0,1-3,9c-4,8.89-6.06,13.34-11,21a174.39,174.39,0,0,1-23,29c-9.34,9.5-17.16,15.3-25.5,21.5a291.35,291.35,0,0,1-38,24c-15.81,8.35-20.81,9.44-41,19-16,7.58-28.74,14.41-37,19a54,54,0,0,1-33-67Z"/><path class="cls-3" d="M200.52,152.5a4.61,4.61,0,0,0-1.07-3.62,3.73,3.73,0,0,0-2.45-1.15,3.83,3.83,0,0,1,3.21.65c.95.85,1.1,2.19,1.23,2.14a6.27,6.27,0,0,0-.77-3.29,7.84,7.84,0,0,0-1.68-2.3,5,5,0,0,1,2.14,1.15,7.79,7.79,0,0,1,2,4.12,13.25,13.25,0,0,1-.77-4.78,11.68,11.68,0,0,1,.46-2.63,11,11,0,0,1,2-3.79,13.78,13.78,0,0,0-.92,5.93c.1,1.38.49,3.62.92,3.62s1.24-2.93.46-5.6a7.45,7.45,0,0,0-.61-1.48,8,8,0,0,1,2.44,4.94,12.54,12.54,0,0,1-.61,4c.05,0,.29-2.25,1.68-3.13a2.77,2.77,0,0,1,1.84-.33,4.55,4.55,0,0,0-2.29,2.47,5.08,5.08,0,0,0-.16,3.13"/><path class="cls-4" d="M206.42,159.5a5.37,5.37,0,0,0-1.19-4.16A4.06,4.06,0,0,0,202.5,154a4.17,4.17,0,0,1,3.58.75c1.06,1,1.23,2.51,1.37,2.46a7.33,7.33,0,0,0-.86-3.78,9.2,9.2,0,0,0-1.87-2.65,5.63,5.63,0,0,1,2.39,1.33,9,9,0,0,1,2.21,4.72,15.7,15.7,0,0,1-.85-5.48,13.3,13.3,0,0,1,.51-3A13,13,0,0,1,211.2,144a16.06,16.06,0,0,0-1,6.8c.11,1.59.54,4.17,1,4.16s1.39-3.35.51-6.42a8.77,8.77,0,0,0-.68-1.7,9.27,9.27,0,0,1,2.73,5.67,15.1,15.1,0,0,1-.68,4.53s.32-2.59,1.87-3.59a3,3,0,0,1,2.05-.38,5.2,5.2,0,0,0-2.56,2.84,6,6,0,0,0-.17,3.59"/><path class="cls-5" d="M200.24,105a4.49,4.49,0,0,0-1.45-4,5.49,5.49,0,0,0-3.29-1.28,6,6,0,0,1,4.32.73c1.28.93,1.48,2.42,1.65,2.37s0-1.87-1-3.65a9.22,9.22,0,0,0-2.26-2.56,7.08,7.08,0,0,1,2.88,1.28,8,8,0,0,1,2.68,4.57,12.37,12.37,0,0,1-1-5.31,10.23,10.23,0,0,1,.61-2.92A11.77,11.77,0,0,1,206,90a12.92,12.92,0,0,0-1.24,6.59c.14,1.53.66,4,1.24,4s1.67-3.25.62-6.22a7.87,7.87,0,0,0-.83-1.65c1.4,1.2,3.11,3.07,3.3,5.49a11.62,11.62,0,0,1-.83,4.39c.07,0,.39-2.5,2.27-3.47a4.33,4.33,0,0,1,2.47-.37,5.72,5.72,0,0,0-3.09,2.74,4.71,4.71,0,0,0-.2,3.48"/><path class="cls-6" d="M168.5,118.5c-.32-.14-4.43,9.15-12,26-1.86,4.13-8.13,22.73-9,27a11.41,11.41,0,0,1-1,3c-1,2-2.13,2.78-2,3,.24.41,4.59-1.43,19-9a11.54,11.54,0,0,0,4-1c2.69-1.24,3.87-3.12,6-6,5.91-8,7.4-7.75,8-11,.72-3.87-1-6.49,0-7,1.13-.59,4.45,2.43,6,6,2.32,5.34-.61,10.8,0,11s2.94-3,3-7c.08-5.1-3.76-8.86-8-13-4.74-4.63-9.59-7.48-10-7-.27.31,2.64,2.58,2,4-.27.59-1.1.87-2.77,1.42a19.72,19.72,0,0,1-2.23.58c-5.06,1-5.49,1.37-6,1-1.21-.88-.19-4.1,1-8C166.87,124.74,168.75,118.61,168.5,118.5Z"/><path class="cls-6" d="M131.5,137.5c-.29.2,2.11,3.46,4,8a20.58,20.58,0,0,1,2,10c-.38,4.18-2.36,6.8-2,7s3-2.93,5-7a27.66,27.66,0,0,0,3-14c-.32-3.91-1.5-7.06-2-7-.74.09.34,7.12-2,8-.74.28-1.53-.16-3-1C133.27,139.65,131.74,137.33,131.5,137.5Z"/><path class="cls-7" d="M150.5,165.5c-.73.29-.9,2.54,0,3a1.62,1.62,0,0,0,2-1C152.78,166.42,151.17,165.23,150.5,165.5Z"/><path class="cls-8" d="M211.5,91.5c5.69,3.06,9.25,8.53,9,14a15.23,15.23,0,0,1-3,8,15,15,0,0,1-5,4,16.8,16.8,0,0,1-7,2c-3.86.2-6-1.15-7,0-.62.72-.36,2,0,3,0,0,1.36,9.66,0,13a18.27,18.27,0,0,1-1.6,2.74,5.52,5.52,0,0,0-.4,1.26c-.34,1.7,1.31,3.81,2,6,.41,1.31.28,2.88,0,6a41.57,41.57,0,0,1-1,6,34.93,34.93,0,0,0-1,4,15.67,15.67,0,0,0,0,2.95c0,.89,0,1.1,0,2.05.06,3.49.64,4.53,0,5-.36.26-1.83.87-2,1h0l-2.34,1.15c-1,.5-1.49.75-1.66.85a5.11,5.11,0,0,1-1.61.92,3.53,3.53,0,0,1-1.39.08c-.91-.14-1.11-.58-2-1-1.23-.58-1.6-.1-2.93-.61a4.84,4.84,0,0,1-2.07-1.39c-1.33-1.74-.16-4.61,0-5,1.31-3.22,3.72-3,7-7,1.53-1.85,2.56-3.09,3-5,.92-4-1.45-7.63-3-10-1.81-2.77-3.69-4.3-7-7-.76-.62-7.19-5.82-8-5-.25.26,0,1.17,2,4l-11,3a17.45,17.45,0,0,1,0-4c.52-4.42,2.47-6,4-11,1-3.36,1.43-6.87,1-7s-1.24,2-3,6c-1.63,3.68-3.39,7.31-5,11-6.33,14.51-5.78,13-7,16-2.89,7.21-4.15,10.89-5,15a50.42,50.42,0,0,1-2.82,9.25s.75-2.27.82-2.25a5.08,5.08,0,0,1-1,3,8.12,8.12,0,0,1-4.07,2.54c-1.33.49-1.32.07-3.93.46-6.21.93-6.81,1.52-9,1-.29-.07-1.19-.38-3-1a29.55,29.55,0,0,1-3.69-1.4,8.23,8.23,0,0,1-3.31-2.6,6.87,6.87,0,0,1,1-8c2.19-2.05,4.66-.36,10-2a21.72,21.72,0,0,0,6-3c5.78-4.19,7.53-10.76,8-13,1.68-7.92-1.26-15.08-2-15s.5,6.85-2,8c-2,.92-5.4-2.18-8-5a22.61,22.61,0,0,1-5,5,20.06,20.06,0,0,1-10,4c-2,.19-7.46.71-12-3-2.9-2.37-6.19-7.08-5-11,.79-2.61,2.88-2.6,5-7,.32-.66,2.31-4.8,1-6-.7-.64-1.72.21-3,0-3.47-.56-7.09-8.49-5-15,1.74-5.42,6.82-7.93,9-9,7.53-3.71,15.66-2.07,16-2,0,0,9,1.94,12.48,1.6a9.88,9.88,0,0,0,2.52-.6h0a58.43,58.43,0,0,1,6-2,29,29,0,0,1,6-1,21.81,21.81,0,0,1,11,2c3.1,1.54,2.72,2.47,6,4,.66.31,2,.89,8,2,9.25,1.72,11,2,11,2a20.77,20.77,0,0,1,5.85,1.92l.15.08a21.84,21.84,0,0,1,4,3c4.4,3.5,12,5.07,17,2a7.94,7.94,0,0,0,3-3C217.47,101.78,215.87,96.28,211.5,91.5Z"/><path class="cls-9" d="M133.5,104.5a17.1,17.1,0,0,0-3,5,12.14,12.14,0,0,0-1,7c.09.47,1.11,5.27,4,6,3.32.84,7.35-4.14,9-8l.13-.3c.39-1,3.37-8.67-1.13-14.7a14.09,14.09,0,0,0-14-5"/><path class="cls-9" d="M106.5,106.5a14.56,14.56,0,0,0-2,6,14.72,14.72,0,0,0,1,7"/><path class="cls-6" d="M133.5,104.5c-.23-.13-5.33,5-5,12,.08,1.8.28,5.92,3,7,2.06.82,5-.35,7-3-.3.14-3.65,1.68-6,0-1.69-1.21-1.88-3.39-2-5C130,109.23,133.71,104.62,133.5,104.5Z"/><path class="cls-9" d="M151.5,91.5a7.45,7.45,0,0,0-6,6,7.52,7.52,0,0,0,2,6"/><path class="cls-9" d="M137.5,128.5a51.56,51.56,0,0,1-3,5c-1,1.49-2,2.82-3,4"/><path class="cls-9" d="M137.5,179.5a4.53,4.53,0,1,1,1-9"/><path class="cls-9" d="M127.5,169.5c-2.51.41-4.53,2-5,4-.67,2.82,1.78,6.49,6,7"/><path class="cls-9" d="M187.5,168.5a3.36,3.36,0,0,0-2,6"/><path class="cls-9" d="M191.5,169.5a2.45,2.45,0,0,0-2,3,2.4,2.4,0,0,0,3,1"/><path class="cls-6" d="M105.5,112.5c.39-.16,1.17.77,2,2-.34,3-.69,4-1,4C105.74,118.52,104.62,112.85,105.5,112.5Z"/><path class="cls-6" d="M118.5,113.5c3-2.35,6-3,7-2,1.45,1.44-.53,6.92-3,7C121,118.55,119.13,116.52,118.5,113.5Z"/><path class="cls-6" d="M102.5,137.5c.35-.49,1.16,0,4,0,3.47,0,4.52-.62,5,0,.9,1.16-1,5.76-4,6C104.26,143.76,101.67,138.65,102.5,137.5Z"/><path class="cls-7" d="M163.5,140.5c-2.38-.3-5.14,3.59-6,7-1.5,5.93,2.07,13,5,13,2.39,0,4.44-4.67,5-8C168.37,147.3,166.37,140.87,163.5,140.5Z"/><path class="cls-10" d="M54.07,190.5a8.63,8.63,0,0,0-.78-4.43,2.44,2.44,0,0,0-1.79-1.41,2,2,0,0,1,2.35.81,10.36,10.36,0,0,1,.89,2.62,12,12,0,0,0-.56-4A10.94,10.94,0,0,0,53,181.24a3.59,3.59,0,0,1,1.57,1.41,13.21,13.21,0,0,1,1.45,5,26.48,26.48,0,0,1-.56-5.83,22.46,22.46,0,0,1,.34-3.22A17.67,17.67,0,0,1,57.2,174a27,27,0,0,0-.67,7.24c.07,1.7.36,4.44.67,4.43s.91-3.57.34-6.84a15.29,15.29,0,0,0-.45-1.81,13.06,13.06,0,0,1,1.79,6,25.18,25.18,0,0,1-.45,4.83s.21-2.75,1.23-3.82a1.34,1.34,0,0,1,1.34-.4,5.13,5.13,0,0,0-1.68,3,10.36,10.36,0,0,0-.11,3.82"/><path class="cls-10" d="M225.51,97.5A8,8,0,0,0,224,91.73a5,5,0,0,0-3.48-1.83,5,5,0,0,1,4.57,1c1.35,1.34,1.56,3.47,1.74,3.4s0-2.68-1.09-5.24a12.45,12.45,0,0,0-2.39-3.67,6.93,6.93,0,0,1,3,1.83c2.39,2.49,2.79,6.57,2.83,6.56a23,23,0,0,1-1.09-7.6,19.44,19.44,0,0,1,.65-4.2,18.43,18.43,0,0,1,2.83-6,24.13,24.13,0,0,0-1.31,9.44c.15,2.2.7,5.78,1.31,5.77s1.77-4.66.65-8.92a12.82,12.82,0,0,0-.87-2.36,13.32,13.32,0,0,1,3.48,7.87,21.79,21.79,0,0,1-.87,6.29c.08,0,.42-3.59,2.4-5a3.5,3.5,0,0,1,2.61-.52,6.9,6.9,0,0,0-3.26,3.93,8.91,8.91,0,0,0-.22,5"/><path class="cls-10" d="M91,189.5a6.47,6.47,0,0,0-1.81-5.5A6.67,6.67,0,0,0,85,182.25c1.59-.23,3.83-.28,5.44,1s1.85,3.31,2.07,3.25,0-2.56-1.3-5a12.32,12.32,0,0,0-2.85-3.5A8.87,8.87,0,0,1,92,179.75,11.22,11.22,0,0,1,95.35,186a18.41,18.41,0,0,1-1.29-7.25,14.78,14.78,0,0,1,.78-4A16.29,16.29,0,0,1,98.2,169a18.85,18.85,0,0,0-1.55,9c.17,2.1.83,5.51,1.55,5.5s2.1-4.44.78-8.5a10.9,10.9,0,0,0-1-2.25c1.76,1.63,3.9,4.18,4.14,7.5a17.42,17.42,0,0,1-1,6c.08,0,.49-3.42,2.84-4.75A5.11,5.11,0,0,1,107,181a7.34,7.34,0,0,0-3.88,3.75,6.9,6.9,0,0,0-.26,4.75"/><path class="cls-11" d="M87.24,225.5a7.71,7.71,0,0,0-1.45-5.5,4.76,4.76,0,0,0-3.29-1.75,4.72,4.72,0,0,1,4.32,1c1.28,1.28,1.48,3.31,1.65,3.25s0-2.56-1-5a12.19,12.19,0,0,0-2.26-3.5,6.56,6.56,0,0,1,2.88,1.75c2.26,2.37,2.64,6.26,2.68,6.25a22.15,22.15,0,0,1-1-7.25,18.55,18.55,0,0,1,.61-4A17.46,17.46,0,0,1,93,205a23.3,23.3,0,0,0-1.24,9c.14,2.1.66,5.51,1.24,5.5s1.67-4.44.62-8.5a12.63,12.63,0,0,0-.83-2.25,12.74,12.74,0,0,1,3.3,7.5,20.94,20.94,0,0,1-.83,6c.07,0,.39-3.42,2.27-4.75A3.32,3.32,0,0,1,100,217a6.55,6.55,0,0,0-3.09,3.75,8.62,8.62,0,0,0-.2,4.75"/><path class="cls-12" d="M211,152.5a3.91,3.91,0,0,0-1.35-3.62,5.4,5.4,0,0,0-3.11-1.15,6,6,0,0,1,4.08.65c1.2.85,1.39,2.19,1.55,2.14s0-1.68-1-3.29a8.34,8.34,0,0,0-2.14-2.3,6.38,6.38,0,0,1,5.24,5.27,11.1,11.1,0,0,1-1-4.78,9,9,0,0,1,.59-2.63A10.51,10.51,0,0,1,216.4,139a11.07,11.07,0,0,0-1.16,5.93c.12,1.38.62,3.62,1.16,3.62s1.58-2.93.58-5.6a6.93,6.93,0,0,0-.77-1.48c1.31,1.07,2.92,2.76,3.1,4.94a10.46,10.46,0,0,1-.77,4c.06,0,.36-2.25,2.13-3.13a4.33,4.33,0,0,1,2.33-.33,5.34,5.34,0,0,0-2.91,2.47,4.07,4.07,0,0,0-.2,3.13"/><path class="cls-13" d="M144.42,195.5a5.37,5.37,0,0,0-1.19-4.16A4.06,4.06,0,0,0,140.5,190a4.17,4.17,0,0,1,3.58.75c1.06,1,1.23,2.51,1.37,2.46a7.33,7.33,0,0,0-.86-3.78,9.2,9.2,0,0,0-1.87-2.65,5.63,5.63,0,0,1,2.39,1.33,9,9,0,0,1,2.21,4.72,15.7,15.7,0,0,1-.85-5.48,13.3,13.3,0,0,1,.51-3A13,13,0,0,1,149.2,180a16.06,16.06,0,0,0-1,6.8c.11,1.59.54,4.17,1,4.16s1.39-3.35.51-6.42a8.77,8.77,0,0,0-.68-1.7,9.27,9.27,0,0,1,2.73,5.67,15.1,15.1,0,0,1-.68,4.53s.32-2.59,1.87-3.59a3,3,0,0,1,2.05-.38,5.2,5.2,0,0,0-2.56,2.84,6,6,0,0,0-.17,3.59"/><path class="cls-14" d="M177.07,180.5a3.77,3.77,0,0,0-.78-2.82,2.63,2.63,0,0,0-1.79-.89,2.67,2.67,0,0,1,2.35.51c.69.65.8,1.7.89,1.66a5.06,5.06,0,0,0-.56-2.56,6.09,6.09,0,0,0-1.23-1.79,3.51,3.51,0,0,1,1.57.9,6.17,6.17,0,0,1,1.45,3.2,11.14,11.14,0,0,1-.56-3.72,9.28,9.28,0,0,1,.34-2A8.68,8.68,0,0,1,180.2,170a11.24,11.24,0,0,0-.67,4.61c.07,1.08.36,2.82.67,2.82s.91-2.28.34-4.36a7.27,7.27,0,0,0-.45-1.15,6.41,6.41,0,0,1,1.79,3.84,10.65,10.65,0,0,1-.45,3.08s.21-1.76,1.23-2.44a1.88,1.88,0,0,1,1.34-.25,3.42,3.42,0,0,0-1.68,1.92,4.25,4.25,0,0,0-.11,2.43"/><path class="cls-15" d="M156.42,203.5a5.37,5.37,0,0,0-1.19-4.16A4.06,4.06,0,0,0,152.5,198a4.17,4.17,0,0,1,3.58.75c1.06,1,1.23,2.51,1.37,2.46a7.33,7.33,0,0,0-.86-3.78,9.2,9.2,0,0,0-1.87-2.65,5.63,5.63,0,0,1,2.39,1.33,9,9,0,0,1,2.21,4.72,15.7,15.7,0,0,1-.85-5.48,13.3,13.3,0,0,1,.51-3A13,13,0,0,1,161.2,188a16.06,16.06,0,0,0-1,6.8c.11,1.59.54,4.17,1,4.16s1.39-3.35.51-6.42a8.77,8.77,0,0,0-.68-1.7,9.27,9.27,0,0,1,2.73,5.67,15.1,15.1,0,0,1-.68,4.53s.32-2.59,1.87-3.59a3,3,0,0,1,2.05-.38,5.2,5.2,0,0,0-2.56,2.84,6,6,0,0,0-.17,3.59"/><path class="cls-4" d="M144.42,208.5a5.37,5.37,0,0,0-1.19-4.16A4.06,4.06,0,0,0,140.5,203a4.17,4.17,0,0,1,3.58.75c1.06,1,1.23,2.51,1.37,2.46a7.33,7.33,0,0,0-.86-3.78,9.2,9.2,0,0,0-1.87-2.65,5.63,5.63,0,0,1,2.39,1.33,9,9,0,0,1,2.21,4.72,15.7,15.7,0,0,1-.85-5.48,13.3,13.3,0,0,1,.51-3A13,13,0,0,1,149.2,193a16.06,16.06,0,0,0-1,6.8c.11,1.59.54,4.17,1,4.16s1.39-3.35.51-6.42a8.77,8.77,0,0,0-.68-1.7,9.27,9.27,0,0,1,2.73,5.67,15.1,15.1,0,0,1-.68,4.53s.32-2.59,1.87-3.59a3,3,0,0,1,2.05-.38,5.2,5.2,0,0,0-2.56,2.84,6,6,0,0,0-.17,3.59"/><path class="cls-16" d="M44.21,189.4a5.42,5.42,0,0,0-1.08-4.19,4.08,4.08,0,0,0-2.69-1.39,4.18,4.18,0,0,1,3.56.85c1,1,1.15,2.54,1.3,2.5a7.43,7.43,0,0,0-.75-3.81,9.13,9.13,0,0,0-1.8-2.69,5.52,5.52,0,0,1,2.35,1.38,9.09,9.09,0,0,1,2.08,4.79,15.76,15.76,0,0,1-.7-5.5,13.38,13.38,0,0,1,.6-3A13,13,0,0,1,49.41,174a16.31,16.31,0,0,0-1.21,6.78c.07,1.59.43,4.17.91,4.18s1.48-3.32.69-6.41a8.91,8.91,0,0,0-.63-1.72,9.35,9.35,0,0,1,2.57,5.75,14.92,14.92,0,0,1-.81,4.51c.06,0,.39-2.58,2-3.53a3,3,0,0,1,2.06-.33A5.23,5.23,0,0,0,52.32,186a6,6,0,0,0-.27,3.58"/><path class="cls-15" d="M99.34,175.47a5.41,5.41,0,0,0-1.15-4.18,4.11,4.11,0,0,0-2.71-1.35,4.18,4.18,0,0,1,3.57.8c1,1,1.2,2.51,1.34,2.47a7.16,7.16,0,0,0-.81-3.79,9.5,9.5,0,0,0-1.85-2.67,5.42,5.42,0,0,1,2.37,1.35,9,9,0,0,1,2.17,4.75,15.64,15.64,0,0,1-.8-5.49,13,13,0,0,1,.55-3,12.72,12.72,0,0,1,2.26-4.32,16.13,16.13,0,0,0-1.09,6.79c.09,1.59.5,4.17,1,4.17s1.42-3.35.57-6.42a8.39,8.39,0,0,0-.66-1.71,9.3,9.3,0,0,1,2.67,5.7,14.68,14.68,0,0,1-.73,4.53c.06,0,.35-2.59,1.92-3.58a3,3,0,0,1,2-.35A5.14,5.14,0,0,0,107.4,172a6,6,0,0,0-.21,3.59"/><path class="cls-17" d="M104.42,192.5a5.37,5.37,0,0,0-1.19-4.16A4.06,4.06,0,0,0,100.5,187a4.17,4.17,0,0,1,3.58.75c1.06,1,1.23,2.51,1.37,2.46a7.33,7.33,0,0,0-.86-3.78,9.2,9.2,0,0,0-1.87-2.65,5.63,5.63,0,0,1,2.39,1.33,9,9,0,0,1,2.21,4.72,15.7,15.7,0,0,1-.85-5.48,13.3,13.3,0,0,1,.51-3A13,13,0,0,1,109.2,177a16.06,16.06,0,0,0-1,6.8c.11,1.59.54,4.17,1,4.16s1.39-3.35.51-6.42a8.77,8.77,0,0,0-.68-1.7,9.27,9.27,0,0,1,2.73,5.67,15.1,15.1,0,0,1-.68,4.53s.32-2.59,1.87-3.59a3,3,0,0,1,2-.38,5.2,5.2,0,0,0-2.56,2.84,6,6,0,0,0-.17,3.59"/><path class="cls-4" d="M50.86,198a4.1,4.1,0,0,0-.78-3.23A3.19,3.19,0,0,0,48,193.68a3.25,3.25,0,0,1,2.74.7c.79.78.87,2,1,1.93a5.59,5.59,0,0,0-.54-2.93,7,7,0,0,0-1.36-2.09,4.24,4.24,0,0,1,1.8,1.09,7,7,0,0,1,1.56,3.71,11.88,11.88,0,0,1-.48-4.24,9.34,9.34,0,0,1,.5-2.31,9.84,9.84,0,0,1,1.85-3.27,12.26,12.26,0,0,0-1,5.2c0,1.22.28,3.21.65,3.23s1.18-2.54.61-4.93a7.13,7.13,0,0,0-.47-1.33,7.18,7.18,0,0,1,1.92,4.45,11,11,0,0,1-.68,3.46c.05,0,.34-2,1.57-2.69a2.34,2.34,0,0,1,1.6-.23,4,4,0,0,0-2.07,2.1,4.46,4.46,0,0,0-.25,2.75"/><path class="cls-4" d="M124.8,159.5a2.84,2.84,0,0,0-.7-2.28,2.49,2.49,0,0,0-1.6-.73,2.62,2.62,0,0,1,2.1.42c.62.53.72,1.37.8,1.35a3.77,3.77,0,0,0-.5-2.08,5.12,5.12,0,0,0-1.1-1.45,3.32,3.32,0,0,1,1.4.73,4.79,4.79,0,0,1,1.3,2.59,8.13,8.13,0,0,1-.5-3,6.93,6.93,0,0,1,.3-1.66,6.75,6.75,0,0,1,1.3-2.38,8.38,8.38,0,0,0-.6,3.73c.07.87.32,2.29.6,2.28s.81-1.84.3-3.52a5.08,5.08,0,0,0-.4-.94,5,5,0,0,1,1.6,3.11,7.68,7.68,0,0,1-.4,2.49s.19-1.42,1.1-2a1.83,1.83,0,0,1,1.2-.2,2.88,2.88,0,0,0-1.5,1.55,3.06,3.06,0,0,0-.1,2"/><path class="cls-18" d="M233.32,104a4.4,4.4,0,0,0-1.77-4.29,7.55,7.55,0,0,0-4.05-1.37,8.45,8.45,0,0,1,5.31.78c1.57,1,1.82,2.59,2,2.54s0-2-1.27-3.9A10.6,10.6,0,0,0,230.79,95a9.77,9.77,0,0,1,3.54,1.37,8.3,8.3,0,0,1,3.29,4.88,11.85,11.85,0,0,1-1.27-5.66,10.17,10.17,0,0,1,.76-3.12A12.69,12.69,0,0,1,240.4,88a12.27,12.27,0,0,0-1.52,7c.17,1.64.81,4.3,1.52,4.3s2-3.47.76-6.64a7.7,7.7,0,0,0-1-1.75c1.71,1.27,3.81,3.26,4,5.85a11,11,0,0,1-1,4.68c.09,0,.48-2.67,2.78-3.7a6,6,0,0,1,3-.39,6.83,6.83,0,0,0-3.79,2.92A4.41,4.41,0,0,0,245,104"/><path class="cls-10" d="M81.24,237.5a7.71,7.71,0,0,0-1.45-5.5,4.76,4.76,0,0,0-3.29-1.75,4.72,4.72,0,0,1,4.32,1c1.28,1.28,1.48,3.31,1.65,3.25s0-2.56-1-5a12.19,12.19,0,0,0-2.26-3.5,6.56,6.56,0,0,1,2.88,1.75c2.26,2.37,2.64,6.26,2.68,6.25a22.15,22.15,0,0,1-1-7.25,18.55,18.55,0,0,1,.61-4A17.46,17.46,0,0,1,87,217a23.3,23.3,0,0,0-1.24,9c.14,2.1.66,5.51,1.24,5.5s1.67-4.44.62-8.5a12.63,12.63,0,0,0-.83-2.25,12.74,12.74,0,0,1,3.3,7.5,20.94,20.94,0,0,1-.83,6c.07,0,.39-3.42,2.27-4.75A3.32,3.32,0,0,1,94,229a6.55,6.55,0,0,0-3.09,3.75,8.62,8.62,0,0,0-.2,4.75"/><path class="cls-1" d="M230,146c2.81-2.82,23.85-24.69,20-56-3.13-25.42-21.82-50.08-49.71-56-34.65-7.34-59.82,19.28-61,20.59"/><path d="M311,78.8h20.19V83H315.91V96.07h14.15v4.19H315.91V118H311Z"/><path d="M358,110.31c0,3,.09,5.47.22,7.7h-4.32l-.26-4.6h-.14a10,10,0,0,1-8.9,5.24c-4.21,0-9.27-2.47-9.27-12.33V89.87h4.87v15.55c0,5.36,1.6,9,6,9a7.14,7.14,0,0,0,6.47-4.7,8,8,0,0,0,.45-2.62V89.87H358Z"/><path d="M365.67,97.47c0-2.93-.09-5.26-.22-7.6h4.33L370,94.5h.14a9.87,9.87,0,0,1,8.89-5.27c3.7,0,9.48,2.33,9.48,12V118h-4.86V101.79c0-4.55-1.64-8.36-6.22-8.36a7.11,7.11,0,0,0-6.59,5.25,8.4,8.4,0,0,0-.34,2.37v17h-4.87Z"/><path d="M419.25,76.7v34.05c0,2.5.1,5.32.23,7.26h-4.35l-.25-4.87h-.13a9.79,9.79,0,0,1-9.13,5.51c-6.51,0-11.54-5.76-11.54-14.3,0-9.4,5.54-15.12,12.09-15.12,4.12,0,6.91,2,8.11,4.27h.11V76.7Zm-4.86,24.62a11.66,11.66,0,0,0-.2-2.19,7.32,7.32,0,0,0-7.09-5.88c-5.06,0-8.09,4.64-8.09,10.83,0,5.71,2.72,10.46,8,10.46,3.28,0,6.25-2.32,7.15-6.15a8.86,8.86,0,0,0,.24-2.19Z"/><path d="M441.82,118l-.43-3.55h-.15a9.89,9.89,0,0,1-8.23,4.19,7.84,7.84,0,0,1-8.21-8.07c0-6.82,5.77-10.56,16.16-10.49V99.5c0-2.29-.61-6.52-6.12-6.49a12.71,12.71,0,0,0-7,2.09l-1.11-3.4a16.38,16.38,0,0,1,8.88-2.47c8.22,0,10.22,5.88,10.22,11.52v10.53a46.14,46.14,0,0,0,.41,6.73Zm-.76-14.37c-5.3-.12-11.36.88-11.36,6.32,0,3.36,2.12,4.9,4.57,4.9a6.75,6.75,0,0,0,6.55-4.71,5.57,5.57,0,0,0,.24-1.61Z"/><path d="M472.39,117a17.88,17.88,0,0,1-7.72,1.63c-8.11,0-13.42-5.77-13.42-14.38s5.65-15,14.45-15a15.28,15.28,0,0,1,6.8,1.5l-1.09,3.93a11.46,11.46,0,0,0-5.72-1.35c-6.13,0-9.5,4.81-9.49,10.65,0,6.52,4,10.53,9.37,10.53a13.64,13.64,0,0,0,6-1.35Z"/><path d="M471,126.14c2.26-.16,4.17-.81,5.33-2.16,1.34-1.59,1.88-3.81,1.88-10.57V89.87h4.87v25.51c0,5.48-.83,9-3.21,11.6-2.16,2.27-5.73,3.17-8.35,3.19ZM483.7,81.92a3,3,0,1,1-6.06,0,3.05,3.05,0,0,1,3.08-3.19A3,3,0,0,1,483.7,81.92Z"/><path d="M505.55,118l-.43-3.55H505a9.89,9.89,0,0,1-8.23,4.19,7.84,7.84,0,0,1-8.21-8.07c0-6.82,5.77-10.56,16.16-10.49V99.5c0-2.29-.61-6.52-6.12-6.49a12.71,12.71,0,0,0-7,2.09l-1.11-3.4a16.38,16.38,0,0,1,8.88-2.47c8.22,0,10.23,5.88,10.23,11.52v10.53A46.23,46.23,0,0,0,510,118Zm-.76-14.37c-5.3-.12-11.36.88-11.36,6.32,0,3.36,2.12,4.9,4.57,4.9a6.77,6.77,0,0,0,6.56-4.71,5.54,5.54,0,0,0,.23-1.61Z"/><path d="M308.49,192.89l20.79-31.84v-.18h-19v-4.24h25.31v3.1L314.9,191.42v.19h21v4.24H308.49Z"/><path d="M342.56,167.71,346.17,182c.78,3.14,1.46,6.08,2,9h.14c.6-2.84,1.49-5.89,2.41-8.94l4.39-14.32h4.12l4.18,14.07c1,3.34,1.76,6.32,2.38,9.19h.13c.49-2.85,1.21-5.82,2.09-9.14l3.84-14.12h4.82L368,195.85h-4.45l-4.09-13.43a88,88,0,0,1-2.38-9.27H357a84.25,84.25,0,0,1-2.46,9.32l-4.32,13.38h-4.48l-8.1-28.14Z"/><path d="M386.54,159.76a3,3,0,1,1-6.06,0,3,3,0,0,1,3-3.19A3,3,0,0,1,386.54,159.76Zm-5.46,36.09V167.71H386v28.14Z"/><path d="M396.33,182.7c.1,6.92,4.29,9.77,9.2,9.77A17.3,17.3,0,0,0,413,191l.86,3.64a21,21,0,0,1-9,1.79c-8.27,0-13.24-5.76-13.24-14.2s4.8-15.19,12.66-15.19c8.77,0,11.07,8.06,11.07,13.23a12.79,12.79,0,0,1-.17,2.4ZM410.65,179c.05-3.22-1.27-8.28-6.75-8.28-5,0-7.12,4.72-7.51,8.28Z"/><path d="M420.94,176.47c0-3.32-.08-6.15-.22-8.76H425l.19,5.52h.17c1.25-3.77,4.22-6.16,7.49-6.16a5.3,5.3,0,0,1,1.36.15V172a7.4,7.4,0,0,0-1.66-.15c-3.45,0-5.89,2.72-6.55,6.55a13.67,13.67,0,0,0-.2,2.39v15h-4.87Z"/><path d="M436.07,192.87l12.17-16.54c1.2-1.57,2.29-2.91,3.54-4.41v-.12H437.16v-4.09h20.55l0,3.19-12,16.36c-1.15,1.52-2.25,3-3.45,4.38v.12h15.71v4.09H436.07Z"/><path d="M477.35,195.85l-.43-3.56h-.14a9.87,9.87,0,0,1-8.23,4.2,7.85,7.85,0,0,1-8.22-8.07c0-6.82,5.77-10.56,16.16-10.49v-.59c0-2.29-.61-6.53-6.12-6.5a12.75,12.75,0,0,0-7,2.1l-1.11-3.4a16.4,16.4,0,0,1,8.88-2.47c8.22,0,10.23,5.88,10.23,11.52v10.53a46.23,46.23,0,0,0,.4,6.73Zm-.76-14.37c-5.29-.12-11.35.88-11.35,6.32,0,3.36,2.11,4.9,4.56,4.9a6.76,6.76,0,0,0,6.56-4.71,5.59,5.59,0,0,0,.23-1.61Z"/><path d="M493.6,180.61h.11c.65-1,1.58-2.23,2.35-3.2l7.92-9.7h5.88l-10.39,11.57,11.84,16.57h-6l-9.25-13.52-2.5,2.93v10.59h-4.87V154.54h4.87Z"/><path d="M520.74,159.76a3,3,0,0,1-3.12,3.18,3,3,0,0,1-3-3.18,3,3,0,0,1,3-3.19A3,3,0,0,1,520.74,159.76Zm-5.47,36.09V167.71h4.87v28.14Z"/><path d="M541,167.71,544.6,182c.77,3.14,1.45,6.08,2,9h.13c.6-2.84,1.49-5.89,2.41-8.94l4.39-14.32h4.12l4.19,14.07c1,3.34,1.75,6.32,2.37,9.19h.13c.49-2.85,1.22-5.82,2.09-9.14l3.84-14.12h4.82l-8.68,28.14H562l-4.09-13.43a88,88,0,0,1-2.38-9.27h-.11a86.5,86.5,0,0,1-2.47,9.32l-4.32,13.38h-4.47L536,167.71Z"/><path d="M590.93,157.11a51.36,51.36,0,0,1,9.32-.78c4.75,0,8.27,1.15,10.51,3.26a10.91,10.91,0,0,1,3.29,8.21,11.84,11.84,0,0,1-2.91,8.39c-2.58,2.87-6.72,4.29-11.45,4.29a15.17,15.17,0,0,1-3.92-.36v15.73h-4.84ZM595.77,176a14.52,14.52,0,0,0,4,.44c5.88,0,9.42-3,9.42-8.37,0-5.2-3.54-7.73-8.85-7.73a21.72,21.72,0,0,0-4.58.4Z"/><path d="M642.83,181.51c0,10.42-6.91,15-13.37,15-7.3,0-12.93-5.56-12.93-14.5,0-9.41,5.91-14.92,13.35-14.92C637.62,167.07,642.83,172.94,642.83,181.51Zm-21.33.33c0,6.17,3.38,10.81,8.16,10.81s8.19-4.58,8.19-11c0-4.76-2.29-10.77-8.1-10.77S621.5,176.5,621.5,181.84Z"/><path d="M654.39,159.61v8.1h7v3.88h-7v15.16c0,3.51,1,5.49,3.7,5.49a9.24,9.24,0,0,0,2.83-.37l.22,3.89a12,12,0,0,1-4.37.7,6.71,6.71,0,0,1-5.28-2.17c-1.34-1.55-1.9-4-1.9-7.34V171.59h-4.16v-3.88h4.16v-6.78Z"/><path d="M666.41,176.47c0-3.32-.08-6.15-.22-8.76h4.29l.18,5.52h.18c1.25-3.77,4.22-6.16,7.49-6.16a5.3,5.3,0,0,1,1.36.15V172a7.4,7.4,0,0,0-1.66-.15c-3.45,0-5.89,2.72-6.55,6.55a13.67,13.67,0,0,0-.2,2.39v15h-4.87Z"/><path d="M681.54,192.87l12.17-16.54c1.2-1.57,2.28-2.91,3.53-4.41v-.12H682.63v-4.09h20.55l0,3.19-12,16.36c-1.15,1.52-2.25,3-3.45,4.38v.12h15.71v4.09H681.54Z"/><path d="M710.26,182.7c.09,6.92,4.29,9.77,9.2,9.77a17.33,17.33,0,0,0,7.45-1.44l.86,3.64a21,21,0,0,1-9,1.79c-8.26,0-13.23-5.76-13.23-14.2s4.8-15.19,12.66-15.19c8.77,0,11.07,8.06,11.07,13.23a12.79,12.79,0,0,1-.17,2.4ZM724.57,179c0-3.22-1.26-8.28-6.74-8.28-5,0-7.12,4.72-7.51,8.28Z"/><path d="M734.65,195.85c.13-1.93.22-4.76.22-7.26V154.54h4.86v17.69h.12a9.85,9.85,0,0,1,9.17-5.16c6.68,0,11.38,5.81,11.35,14.33,0,10.09-6.11,15.09-12.11,15.09a9.62,9.62,0,0,1-9-5.27h-.13l-.25,4.63Zm5.08-11.28a8.6,8.6,0,0,0,.21,1.85,7.6,7.6,0,0,0,7.33,6c5.15,0,8.17-4.35,8.17-10.81,0-5.66-2.79-10.5-8-10.5a7.88,7.88,0,0,0-7.41,6.29,8.8,8.8,0,0,0-.28,2.13Z"/><path d="M771.49,159.76a3,3,0,1,1-6.07,0,3.05,3.05,0,0,1,3.05-3.19A3,3,0,0,1,771.49,159.76ZM766,195.85V167.71h4.87v28.14Z"/><path d="M781.27,182.7c.1,6.92,4.3,9.77,9.21,9.77a17.33,17.33,0,0,0,7.45-1.44l.85,3.64a21,21,0,0,1-9,1.79c-8.26,0-13.24-5.76-13.24-14.2s4.81-15.19,12.66-15.19c8.78,0,11.07,8.06,11.07,13.23a12.79,12.79,0,0,1-.17,2.4ZM795.59,179c0-3.22-1.26-8.28-6.75-8.28-5,0-7.12,4.72-7.51,8.28Z"/><rect class="cls-19" width="827.83" height="280"/></g></g></svg>