<svg xmlns="http://www.w3.org/2000/svg" viewBox="0 0 379.13 226.15"><defs><style>.cls-1{fill:#67aaa9;stroke:#009498;stroke-miterlimit:10;stroke-width:0.25px;}.cls-13,.cls-2{fill:#9ac2f1;}.cls-11,.cls-3{fill:#464c60;}.cls-4,.cls-8{fill:#20193f;}.cls-5{fill:#ffdc00;}.cls-16,.cls-6{fill:#51a170;}.cls-19,.cls-7{fill:#2e6237;}.cls-11,.cls-13,.cls-16,.cls-19,.cls-8{font-size:10.38px;font-family:Futura-Medium, Futura;font-weight:500;}.cls-9{letter-spacing:-0.08em;}.cls-10{letter-spacing:-0.08em;}.cls-12{letter-spacing:-0.01em;}.cls-14{letter-spacing:-0.04em;}.cls-15{letter-spacing:0em;}.cls-17{letter-spacing:-0.08em;}.cls-18{letter-spacing:-0.09em;}.cls-20{letter-spacing:-0.04em;}</style></defs><g id="Warstwa_2" data-name="Warstwa 2"><g id="Warstwa_1-2" data-name="Warstwa 1"><rect class="cls-1" x="74" y="0.13" width="305" height="179"/><rect class="cls-2" x="158" y="19.13" width="67.4" height="189"/><rect class="cls-3" x="225.56" y="19.13" width="67.4" height="189"/><rect class="cls-4" x="292.85" y="19.13" width="67.4" height="189"/><circle class="cls-5" cx="3.37" cy="68.49" r="3.37"/><circle class="cls-5" cx="18.76" cy="68.49" r="3.37"/><circle class="cls-5" cx="3.37" cy="81.96" r="3.37"/><circle class="cls-5" cx="18.76" cy="81.96" r="3.37"/><circle class="cls-5" cx="34.15" cy="68.49" r="3.37"/><circle class="cls-5" cx="49.54" cy="68.49" r="3.37"/><circle class="cls-5" cx="34.15" cy="81.96" r="3.37"/><circle class="cls-5" cx="49.54" cy="81.96" r="3.37"/><circle class="cls-5" cx="3.37" cy="97.35" r="3.37"/><circle class="cls-5" cx="18.76" cy="97.35" r="3.37"/><circle class="cls-5" cx="3.37" cy="110.82" r="3.37"/><circle class="cls-5" cx="18.76" cy="110.82" r="3.37"/><circle class="cls-5" cx="34.15" cy="97.35" r="3.37"/><circle class="cls-5" cx="49.54" cy="97.35" r="3.37"/><circle class="cls-5" cx="34.15" cy="110.82" r="3.37"/><circle class="cls-5" cx="49.54" cy="110.82" r="3.37"/><circle class="cls-5" cx="64.21" cy="68.62" r="3.37"/><circle class="cls-5" cx="79.6" cy="68.62" r="3.37"/><circle class="cls-5" cx="64.21" cy="82.09" r="3.37"/><circle class="cls-5" cx="79.6" cy="82.09" r="3.37"/><circle class="cls-5" cx="94.99" cy="68.62" r="3.37"/><circle class="cls-5" cx="110.38" cy="68.62" r="3.37"/><circle class="cls-5" cx="94.99" cy="82.09" r="3.37"/><circle class="cls-5" cx="110.38" cy="82.09" r="3.37"/><circle class="cls-5" cx="64.21" cy="97.48" r="3.37"/><circle class="cls-5" cx="79.6" cy="97.48" r="3.37"/><circle class="cls-5" cx="64.21" cy="110.95" r="3.37"/><circle class="cls-5" cx="79.6" cy="110.95" r="3.37"/><circle class="cls-5" cx="94.99" cy="97.48" r="3.37"/><circle class="cls-5" cx="110.38" cy="97.48" r="3.37"/><circle class="cls-5" cx="94.99" cy="110.95" r="3.37"/><circle class="cls-5" cx="110.38" cy="110.95" r="3.37"/><circle class="cls-5" cx="4.03" cy="126.42" r="3.37"/><circle class="cls-5" cx="19.42" cy="126.42" r="3.37"/><circle class="cls-5" cx="4.03" cy="139.89" r="3.37"/><circle class="cls-5" cx="19.42" cy="139.89" r="3.37"/><circle class="cls-5" cx="34.81" cy="126.42" r="3.37"/><circle class="cls-5" cx="50.2" cy="126.42" r="3.37"/><circle class="cls-5" cx="34.81" cy="139.89" r="3.37"/><circle class="cls-5" cx="50.2" cy="139.89" r="3.37"/><circle class="cls-5" cx="4.03" cy="155.28" r="3.37"/><circle class="cls-5" cx="19.42" cy="155.28" r="3.37"/><circle class="cls-5" cx="4.03" cy="168.75" r="3.37"/><circle class="cls-5" cx="19.42" cy="168.75" r="3.37"/><circle class="cls-5" cx="34.81" cy="155.28" r="3.37"/><circle class="cls-5" cx="50.2" cy="155.28" r="3.37"/><circle class="cls-5" cx="34.81" cy="168.75" r="3.37"/><circle class="cls-5" cx="50.2" cy="168.75" r="3.37"/><circle class="cls-5" cx="64.87" cy="126.55" r="3.37"/><circle class="cls-5" cx="80.27" cy="126.55" r="3.37"/><circle class="cls-5" cx="64.87" cy="140.02" r="3.37"/><circle class="cls-5" cx="80.27" cy="140.02" r="3.37"/><circle class="cls-5" cx="95.66" cy="126.55" r="3.37"/><circle class="cls-5" cx="111.05" cy="126.55" r="3.37"/><circle class="cls-5" cx="95.66" cy="140.02" r="3.37"/><circle class="cls-5" cx="111.05" cy="140.02" r="3.37"/><circle class="cls-5" cx="64.87" cy="155.41" r="3.37"/><circle class="cls-5" cx="80.27" cy="155.41" r="3.37"/><circle class="cls-5" cx="64.87" cy="168.88" r="3.37"/><circle class="cls-5" cx="80.27" cy="168.88" r="3.37"/><circle class="cls-5" cx="95.66" cy="155.41" r="3.37"/><circle class="cls-5" cx="111.05" cy="155.41" r="3.37"/><circle class="cls-5" cx="95.66" cy="168.88" r="3.37"/><circle class="cls-5" cx="111.05" cy="168.88" r="3.37"/><rect class="cls-6" x="90.87" y="19.13" width="67.4" height="189"/><rect class="cls-7" x="23.49" y="19.13" width="67.4" height="189"/><text class="cls-8" transform="translate(305.39 222.83) scale(1.05 1)">#2<tspan class="cls-9" x="12.82" y="0">0</tspan><tspan class="cls-10" x="18.43" y="0">1</tspan><tspan x="23.99" y="0">93F</tspan></text><text class="cls-11" transform="translate(235.92 223.15) scale(1.05 1)">#4<tspan class="cls-12" x="12.82" y="0">6</tspan><tspan x="19.14" y="0">4C60</tspan></text><text class="cls-13" transform="translate(167.33 223.08) scale(1.05 1)">#9<tspan class="cls-14" x="12.82" y="0">A</tspan><tspan class="cls-15" x="20.15" y="0">C2F1</tspan></text><text class="cls-16" transform="translate(101.33 223.08) scale(1.05 1)">#<tspan class="cls-17" x="6.41" y="0">5</tspan><tspan x="12.03" y="0">1A</tspan><tspan class="cls-18" x="26.13" y="0">1</tspan><tspan x="31.58" y="0">70</tspan></text><text class="cls-19" transform="translate(31.33 223.08) scale(1.05 1)">#2E62<tspan class="cls-20" x="31.51" y="0">3</tspan><tspan x="37.46" y="0">7</tspan></text></g></g></svg>