<svg xmlns="http://www.w3.org/2000/svg" viewBox="0 0 383.99 238"><defs><style>.cls-1{fill:none;}.cls-2{fill:#ffe300;}.cls-2,.cls-3{stroke:#000;stroke-miterlimit:10;stroke-width:3px;}.cls-3{fill:#fff;}.cls-4{font-size:28px;font-family:AvenirNextCondensed-DemiBold, Avenir Next Condensed;font-weight:300;}.cls-5{letter-spacing:-0.02em;}.cls-6{letter-spacing:-0.02em;}.cls-7{letter-spacing:0em;}</style></defs><g id="Warstwa_2" data-name="Warstwa 2"><g id="Warstwa_1-2" data-name="Warstwa 1"><rect class="cls-1" width="383.99" height="238"/><circle class="cls-2" cx="119.55" cy="100.5" r="25.6"/><path class="cls-3" d="M133,117.43a22,22,0,0,0,.21-3.06A22.46,22.46,0,0,0,102,93.66a21.88,21.88,0,1,0-41.55,13.75,22.86,22.86,0,0,0,3.37,45.47,23.64,23.64,0,0,0,2.93-.19L126,153A18.17,18.17,0,0,0,133,117.43Z"/><text class="cls-4" transform="translate(167.5 125.7) scale(1.08 1)">WHE<tspan class="cls-5" x="50.37" y="0">A</tspan><tspan x="64.04" y="0">THER</tspan><tspan class="cls-6" x="117.88" y="0"> </tspan><tspan class="cls-7" x="122.83" y="0">APP</tspan></text></g></g></svg>