<svg xmlns="http://www.w3.org/2000/svg" viewBox="0 0 225 141"><defs><style>.cls-1{font-size:37.35px;}.cls-1,.cls-12{font-family:Futura-CondensedMedium, Futura;font-weight:500;}.cls-2{fill:#0075ff;}.cls-3{fill:#3fa9f5;}.cls-4{fill:#39b54a;}.cls-5{fill:#7ac943;}.cls-6{fill:#f17024;}.cls-7{fill:#fbb03b;}.cls-8{fill:#ed003c;}.cls-9{fill:#ff3a4f;}.cls-10{fill:#c0f;}.cls-11{fill:#f75cf0;}.cls-12{font-size:37.01px;}.cls-13{letter-spacing:-0.02em;}.cls-14{fill:none;}</style></defs><g id="Warstwa_2" data-name="Warstwa 2"><g id="Warstwa_1-2" data-name="Warstwa 1"><text class="cls-1" transform="translate(34.56 81.99) scale(1.44 1)">W</text><polygon class="cls-2" points="91.83 65.38 83.87 53.67 92.22 51.23 91.83 65.38"/><polygon class="cls-3" points="92.33 51.1 81.02 49.41 82.81 57.45 92.33 51.1"/><polygon class="cls-4" points="99.59 44.4 85.88 47.95 86.4 39.27 99.59 44.4"/><polygon class="cls-5" points="86.31 39.12 80.91 49.2 89.08 50.22 86.31 39.12"/><polygon class="cls-6" points="81.99 29.8 81.14 43.93 73.04 40.77 81.99 29.8"/><polygon class="cls-7" points="72.87 40.8 80.8 49.05 84.29 41.59 72.87 40.8"/><polygon class="cls-8" points="63.05 41.75 76.12 47.19 70.47 53.81 63.05 41.75"/><polygon class="cls-9" points="70.31 54.01 80.71 49.23 74.8 43.48 70.31 54.01"/><polygon class="cls-10" points="68.58 64.35 77.52 53.37 82.25 60.67 68.58 64.35"/><polygon class="cls-11" points="82.4 60.74 80.78 49.41 73.59 53.43 82.4 60.74"/><rect x="80" y="69" width="1" height="13.14"/><text class="cls-12" transform="translate(93.29 81.88) scale(1.28 1)"><tspan class="cls-13">A</tspan><tspan x="14.49" y="0">TRAKI</tspan></text><rect class="cls-14" width="225" height="141"/></g></g></svg>